name D:\school\WTK\thesis\model\3dpredictsim\Results\MidTarsalJoint\Fal_s1_bCst_PF_Natali2010_ls150_MT_k800_MTP_T5_ig24.mot
datacolumns 128
datarows 4
range 1.68430992 1.71799612
endheader
time	pelvis_tilt	pelvis_list	pelvis_rotation	pelvis_tx	pelvis_ty	pelvis_tz	hip_flexion_l	hip_adduction_l	hip_rotation_l	hip_flexion_r	hip_adduction_r	hip_rotation_r	knee_angle_l	knee_angle_r	ankle_angle_l	ankle_angle_r	subtalar_angle_l	subtalar_angle_r	mtj_angle_l	mtj_angle_r	mtp_angle_l	mtp_angle_r	lumbar_extension	lumbar_bending	lumbar_rotation	arm_flex_l	arm_add_l	arm_rot_l	arm_flex_r	arm_add_r	arm_rot_r	elbow_flex_l	elbow_flex_r	pro_sup_l	pro_sup_r	glut_med1_l/activation	glut_med2_l/activation	glut_med3_l/activation	glut_min1_l/activation	glut_min2_l/activation	glut_min3_l/activation	semimem_l/activation	semiten_l/activation	bifemlh_l/activation	bifemsh_l/activation	sar_l/activation	add_long_l/activation	add_brev_l/activation	add_mag1_l/activation	add_mag2_l/activation	add_mag3_l/activation	tfl_l/activation	pect_l/activation	grac_l/activation	glut_max1_l/activation	glut_max2_l/activation	glut_max3_l/activation	iliacus_l/activation	psoas_l/activation	quad_fem_l/activation	gem_l/activation	peri_l/activation	rect_fem_l/activation	vas_med_l/activation	vas_int_l/activation	vas_lat_l/activation	med_gas_l/activation	lat_gas_l/activation	soleus_l/activation	tib_post_l/activation	flex_dig_l/activation	flex_hal_l/activation	tib_ant_l/activation	per_brev_l/activation	per_long_l/activation	per_tert_l/activation	ext_dig_l/activation	ext_hal_l/activation	ercspn_l/activation	intobl_l/activation	extobl_l/activation	glut_med1_r/activation	glut_med2_r/activation	glut_med3_r/activation	glut_min1_r/activation	glut_min2_r/activation	glut_min3_r/activation	semimem_r/activation	semiten_r/activation	bifemlh_r/activation	bifemsh_r/activation	sar_r/activation	add_long_r/activation	add_brev_r/activation	add_mag1_r/activation	add_mag2_r/activation	add_mag3_r/activation	tfl_r/activation	pect_r/activation	grac_r/activation	glut_max1_r/activation	glut_max2_r/activation	glut_max3_r/activation	iliacus_r/activation	psoas_r/activation	quad_fem_r/activation	gem_r/activation	peri_r/activation	rect_fem_r/activation	vas_med_r/activation	vas_int_r/activation	vas_lat_r/activation	med_gas_r/activation	lat_gas_r/activation	soleus_r/activation	tib_post_r/activation	flex_dig_r/activation	flex_hal_r/activation	tib_ant_r/activation	per_brev_r/activation	per_long_r/activation	per_tert_r/activation	ext_dig_r/activation	ext_hal_r/activation	ercspn_r/activation	intobl_r/activation	extobl_r/activation	
          1.68430992	         -2.92970786	          1.99618525	         -4.91899655	          2.10538740	          0.92059381	          0.00181995	         29.89330493	          3.06901526	         -2.42994055	        -17.20096459	         -0.89748281	          6.94803000	        -12.71213948	         -6.04316247	          5.91024902	         -0.68162248	         -3.00371254	          8.87838891	         -0.06933758	          2.02692393	          0.49063565	         17.69971507	         -2.35006045	         -0.19850051	          1.91604562	         -4.74549580	        -13.46641325	          5.24662735	          4.49444045	        -13.45042856	         14.85479388	         18.29305766	         35.38362596	         86.51662706	         86.51662706	          0.07046466	          0.05000100	          0.05935758	          0.05000049	          0.05000066	          0.05000448	          0.09546850	          0.07046493	          0.22298470	          0.05000888	          0.05000285	          0.12930653	          0.16533831	          0.13456287	          0.12830815	          0.10576097	          0.05935691	          0.05027273	          0.11467117	          0.05936025	          0.06000892	          0.09574583	          0.05000036	          0.05000108	          0.19810996	          0.05000099	          0.05000345	          0.05000029	          0.05000610	          0.05001542	          0.05000274	          0.05000044	          0.05000077	          0.05000016	          0.05935693	          0.05001760	          0.05878249	          0.42984218	          0.23991057	          0.19254320	          0.07651357	          0.40854070	          0.13004546	          0.06997287	          0.12674461	          0.11789342	          0.33614215	          0.11784260	          0.08004143	          0.36219930	          0.23396167	          0.11798734	          0.05000187	          0.05000051	          0.05000040	          0.07047095	          0.11825510	          0.05000020	          0.05000018	          0.05000028	          0.05000080	          0.05000067	          0.35419902	          0.05000092	          0.05000089	          0.05004480	          0.05000650	          0.05000156	          0.41988772	          0.63197525	          0.05000052	          0.05000329	          0.05935677	          0.23263753	          0.05000065	          0.05000065	          0.05000061	          0.31989195	          0.43720470	          0.32940766	          0.29012255	          0.31396019	          0.39264502	          0.05000014	          0.06190539	          0.13357786	          0.05000059	          0.05000017	          0.05000064	          0.05000003	          0.05000002	          0.05000005	
          1.69553865	         -2.92950446	          2.09169685	         -5.20703094	          2.12206986	          0.91965800	          0.00161151	         29.32549713	          3.46212633	         -2.23870358	        -17.09447222	         -1.19713626	          6.74608337	        -12.36880879	         -7.90354845	          5.52113080	         -1.28844174	         -3.40818430	          9.89081026	         -0.06332912	          1.64072602	          0.50288686	         19.03025709	         -2.17441421	         -0.41138753	          1.99127884	         -5.55919730	        -13.46643101	          4.95448897	          4.24851790	        -13.45736548	         15.23740440	         17.85112048	         36.56297480	         86.51662706	         86.51662706	          0.05935723	          0.05935727	          0.05000063	          0.05935741	          0.05935738	          0.05935558	          0.08187943	          0.05935700	          0.20697835	          0.05000073	          0.05000084	          0.13995485	          0.31505489	          0.11335117	          0.16109890	          0.11162440	          0.05000045	          0.07794479	          0.09659723	          0.05000298	          0.05054911	          0.14745389	          0.05900094	          0.05000077	          0.28218415	          0.24981349	          0.12660984	          0.06110824	          0.15349738	          0.15136912	          0.13413683	          0.05108760	          0.05208605	          0.05646823	          0.05000011	          0.05000184	          0.05000074	          0.55746911	          0.26353096	          0.16219050	          0.23989605	          0.48212285	          0.24355717	          0.05894214	          0.10676419	          0.09930834	          0.28315196	          0.09926556	          0.06742353	          0.30510126	          0.19707933	          0.09938753	          0.05000350	          0.05000082	          0.05000057	          0.05936174	          0.09961333	          0.09996487	          0.10371754	          0.05000696	          0.05001152	          0.05000350	          0.29836234	          0.07369164	          0.05000615	          0.05000811	          0.05000585	          0.05000468	          0.35369550	          0.58799901	          0.05000098	          0.05000194	          0.05000059	          0.19596447	          0.07528598	          0.05039367	          0.05290869	          0.26946315	          0.36828243	          0.29579317	          0.26872309	          0.26448561	          0.34912998	          0.05000009	          0.05935471	          0.12640501	          0.05000048	          0.05000013	          0.05000050	          0.05000009	          0.05006076	          0.06217673	
          1.70676739	         -2.92445733	          2.18685899	         -5.46751481	          2.13910633	          0.91872083	          0.00139788	         28.64954235	          3.82407449	         -2.00113894	        -16.88790008	         -1.49143151	          6.53995242	        -12.54804829	         -9.94767156	          4.88388664	         -2.02916992	         -3.79793881	         10.88325382	         -0.08871275	          1.19067617	          0.51046307	         20.35387878	         -1.97334651	         -0.63278403	          2.05823602	         -6.41159291	        -13.47046555	          4.70938562	          3.91748211	        -13.46741832	         15.54761135	         17.46521919	         37.72777874	         86.51662706	         86.51662706	          0.05000003	          0.05000015	          0.10996375	          0.05000016	          0.05000018	          0.05000020	          0.06897190	          0.05000051	          0.17434972	          0.05000027	          0.05000815	          0.11789227	          0.26787554	          0.35102733	          0.22304920	          0.12108086	          0.05000127	          0.07057891	          0.12542719	          0.07543233	          0.09165297	          0.12420977	          0.05000019	          0.05935855	          0.45632204	          0.21043216	          0.10665075	          0.06217971	          0.17263860	          0.17357524	          0.14815212	          0.05000116	          0.05936007	          0.05000009	          0.05935679	          0.05000428	          0.05928154	          0.50420464	          0.30745074	          0.20343169	          0.20207836	          0.45025384	          0.20516220	          0.05000002	          0.08993354	          0.08365306	          0.23851506	          0.08361708	          0.05679495	          0.25700434	          0.16601123	          0.08371985	          0.05000598	          0.05000125	          0.05000208	          0.05000386	          0.08391034	          0.19275204	          0.11807341	          0.07043944	          0.05936081	          0.05935870	          0.25132783	          0.09922607	          0.05000809	          0.05000996	          0.05000993	          0.05935199	          0.29793790	          0.54047058	          0.05278088	          0.05935821	          0.05935731	          0.16507232	          0.10801595	          0.15697701	          0.13995445	          0.22698410	          0.31022521	          0.24916337	          0.22636092	          0.22279186	          0.29409257	          0.05000004	          0.05000027	          0.12660459	          0.05000019	          0.05000005	          0.05000027	          0.06066318	          0.06410891	          0.05935725	
          1.71799612	         -2.91526845	          2.28565099	         -5.69937937	          2.15640247	          0.91778395	          0.00120222	         27.82765642	          4.09700513	         -1.73346265	        -16.59940112	         -1.78240526	          6.32243600	        -12.94524219	        -12.11872112	          4.39893365	         -2.95212022	         -4.20675606	         11.82220623	         -0.12631708	          0.70523717	          0.46116924	         21.59123793	         -1.75476385	         -0.86435504	          2.11407994	         -7.27928360	        -13.48324592	          4.53370782	          3.51742171	        -13.47657445	         15.79233507	         17.11211081	         38.87101095	         86.51662706	         86.51662706	          0.25702456	          0.25546709	          0.31215567	          0.39378686	          0.23983478	          0.19923805	          0.07468852	          0.05005979	          0.15005997	          0.07658605	          0.05002369	          0.09930745	          0.22564694	          0.29569045	          0.18788734	          0.12253648	          0.05000093	          0.05946920	          0.10565587	          0.14806211	          0.12060381	          0.10462929	          0.05007792	          0.05000162	          0.38438606	          0.17725925	          0.24544169	          0.05237757	          0.14542353	          0.14621255	          0.12479713	          0.05000135	          0.05000284	          0.05442156	          0.05000053	          0.05000083	          0.05000109	          0.58795821	          0.33135236	          0.17136269	          0.41183629	          0.52614953	          0.23542059	          0.06713738	          0.10548160	          0.07046574	          0.34019857	          0.07043548	          0.05000025	          0.33650077	          0.13984094	          0.07052208	          0.05000370	          0.05000050	          0.05000036	          0.05000094	          0.07068401	          0.16236621	          0.09946028	          0.05933540	          0.05000390	          0.05000159	          0.25581240	          0.08359034	          0.05000299	          0.05000402	          0.05000205	          0.05000107	          0.25097024	          0.50355847	          0.05000035	          0.05000178	          0.05000047	          0.13904985	          0.09098811	          0.13223079	          0.11789170	          0.19120158	          0.26132031	          0.20988444	          0.19067671	          0.18767048	          0.24773106	          0.05000051	          0.09173921	          0.16121941	          0.05000051	          0.08287443	          0.05000075	          0.06162100	          0.05400258	          0.05000017	
